<svg width="42" height="42" viewBox="0 0 42 42" fill="none" xmlns="http://www.w3.org/2000/svg">
<path d="M29.4837 27.171C29.4925 27.5339 29.4296 27.8949 29.2988 28.2335C29.168 28.5721 28.9718 28.8816 28.7213 29.1443C28.4709 29.407 28.1711 29.6178 27.8391 29.7646C27.5072 29.9115 27.1496 29.9914 26.7867 30H17.8277C17.6347 29.9881 17.4542 29.9004 17.3257 29.756C17.1972 29.6115 17.131 29.4221 17.1417 29.229C17.131 29.0359 17.1972 28.8465 17.3257 28.702C17.4542 28.5576 17.6347 28.4699 17.8277 28.458H26.7867C27.133 28.4625 27.467 28.3297 27.7155 28.0884C27.9641 27.8472 28.1069 27.5173 28.1127 27.171V14.829C28.1066 14.4829 27.9637 14.1532 27.7152 13.9122C27.4667 13.6712 27.1328 13.5385 26.7867 13.543H17.8277C17.6389 13.5204 17.465 13.4294 17.3388 13.2873C17.2126 13.1451 17.143 12.9616 17.143 12.7715C17.143 12.5814 17.2126 12.3979 17.3388 12.2557C17.465 12.1136 17.6389 12.0226 17.8277 12H26.7867C27.1498 12.0082 27.5078 12.0879 27.8401 12.2345C28.1724 12.3812 28.4725 12.5919 28.7233 12.8547C28.974 13.1174 29.1705 13.427 29.3015 13.7658C29.4325 14.1046 29.4954 14.4659 29.4867 14.829L29.4837 27.171ZM22.8497 21.823H15.1497L17.9497 24.623C18.0211 24.695 18.0777 24.7804 18.1161 24.8743C18.1545 24.9682 18.1741 25.0687 18.1737 25.1702C18.1733 25.2716 18.1529 25.372 18.1137 25.4656C18.0745 25.5591 18.0172 25.6441 17.9452 25.7155C17.7997 25.8598 17.6029 25.9404 17.398 25.9395C17.1931 25.9387 16.997 25.8565 16.8527 25.711L12.7387 21.6C12.667 21.5283 12.6101 21.4432 12.5712 21.3495C12.5324 21.2558 12.5125 21.1554 12.5125 21.054C12.5125 20.9526 12.5324 20.8522 12.5712 20.7585C12.6101 20.6648 12.667 20.5797 12.7387 20.508L16.8527 16.392C16.9237 16.3176 17.0089 16.2582 17.1032 16.2173C17.1975 16.1763 17.2991 16.1545 17.4019 16.1533C17.5047 16.1521 17.6067 16.1715 17.702 16.2103C17.7972 16.2491 17.8838 16.3065 17.9565 16.3792C18.0293 16.4518 18.0868 16.5383 18.1256 16.6335C18.1645 16.7287 18.1839 16.8307 18.1828 16.9336C18.1817 17.0364 18.1601 17.138 18.1192 17.2323C18.0783 17.3267 18.019 17.4119 17.9447 17.483L15.1447 20.283H22.8447C23.1007 20.283 23.3077 20.629 23.3077 21.054C23.3077 21.479 23.1057 21.823 22.8497 21.823Z" fill="black" fill-opacity="0.45"/>
</svg>
