<svg width="42" height="42" viewBox="0 0 42 42" fill="none" xmlns="http://www.w3.org/2000/svg">
<path d="M21 12C19.22 12 17.4799 12.5278 15.9999 13.5168C14.5198 14.5057 13.3663 15.9113 12.6851 17.5558C12.0039 19.2004 11.8257 21.01 12.1729 22.7558C12.5202 24.5016 13.3774 26.1053 14.636 27.364C15.8947 28.6226 17.4984 29.4798 19.2442 29.8271C20.99 30.1743 22.7996 29.9961 24.4442 29.3149C26.0887 28.6337 27.4943 27.4802 28.4832 26.0001C29.4722 24.5201 30 22.78 30 21C30 19.8181 29.7672 18.6478 29.3149 17.5558C28.8626 16.4639 28.1997 15.4718 27.364 14.636C26.5282 13.8003 25.5361 13.1374 24.4442 12.6851C23.3522 12.2328 22.1819 12 21 12ZM21.9 28.137V27.3C21.9 27.0613 21.8052 26.8324 21.6364 26.6636C21.4676 26.4948 21.2387 26.4 21 26.4C20.7613 26.4 20.5324 26.4948 20.3636 26.6636C20.1948 26.8324 20.1 27.0613 20.1 27.3V28.137C18.516 27.9361 17.0437 27.2144 15.9146 26.0854C14.7856 24.9563 14.0639 23.484 13.863 21.9H14.7C14.9387 21.9 15.1676 21.8052 15.3364 21.6364C15.5052 21.4676 15.6 21.2387 15.6 21C15.6 20.7613 15.5052 20.5324 15.3364 20.3636C15.1676 20.1948 14.9387 20.1 14.7 20.1H13.863C14.0639 18.516 14.7856 17.0437 15.9146 15.9146C17.0437 14.7856 18.516 14.0639 20.1 13.863V14.7C20.1 14.9387 20.1948 15.1676 20.3636 15.3364C20.5324 15.5052 20.7613 15.6 21 15.6C21.2387 15.6 21.4676 15.5052 21.6364 15.3364C21.8052 15.1676 21.9 14.9387 21.9 14.7V13.863C23.484 14.0639 24.9563 14.7856 26.0854 15.9146C27.2144 17.0437 27.9361 18.516 28.137 20.1H27.3C27.0613 20.1 26.8324 20.1948 26.6636 20.3636C26.4948 20.5324 26.4 20.7613 26.4 21C26.4 21.2387 26.4948 21.4676 26.6636 21.6364C26.8324 21.8052 27.0613 21.9 27.3 21.9H28.137C27.9361 23.484 27.2144 24.9563 26.0854 26.0854C24.9563 27.2144 23.484 27.9361 21.9 28.137ZM23.826 16.995L19.326 18.903C19.1162 18.9939 18.9489 19.1612 18.858 19.371L16.95 23.871C16.8791 24.036 16.8592 24.2185 16.8929 24.3949C16.9266 24.5714 17.0123 24.7337 17.139 24.861C17.3052 25.0306 17.5316 25.1276 17.769 25.131C17.8935 25.1311 18.0165 25.1034 18.129 25.05L22.629 23.142C22.8388 23.0511 23.0061 22.8838 23.097 22.674L25.005 18.174C25.0746 18.0091 25.0934 17.8272 25.059 17.6515C25.0246 17.4759 24.9387 17.3144 24.8121 17.1879C24.6856 17.0613 24.5241 16.9754 24.3485 16.941C24.1728 16.9066 23.9909 16.9254 23.826 16.995ZM21.585 21.585L19.533 22.485L20.433 20.433L22.485 19.533L21.585 21.585Z" fill="#27AE60"/>
</svg>
