<svg width="32" height="32" viewBox="0 0 32 32" fill="none" xmlns="http://www.w3.org/2000/svg">
<g clip-path="url(#clip0_301_58)">
<path d="M16 24.3921C14.5215 25.2608 12.8397 25.7234 11.1249 25.7332C9.41006 25.743 7.72309 25.2996 6.23474 24.4478C4.74639 23.5961 3.50949 22.3662 2.64924 20.8828C1.78899 19.3993 1.33594 17.7149 1.33594 16.0001C1.33594 14.2852 1.78899 12.6008 2.64924 11.1173C3.50949 9.63389 4.74639 8.40403 6.23474 7.55227C7.72309 6.70051 9.41006 6.25709 11.1249 6.26688C12.8397 6.27668 14.5215 6.73935 16 7.60806C17.4785 6.73935 19.1603 6.27668 20.8751 6.26688C22.5899 6.25709 24.2769 6.70051 25.7653 7.55227C27.2536 8.40403 28.4905 9.63389 29.3508 11.1173C30.211 12.6008 30.6641 14.2852 30.6641 16.0001C30.6641 17.7149 30.211 19.3993 29.3508 20.8828C28.4905 22.3662 27.2536 23.5961 25.7653 24.4478C24.2769 25.2996 22.5899 25.743 20.8751 25.7332C19.1603 25.7234 17.4785 25.2608 16 24.3921V24.3921ZM18.2693 22.5467C19.3422 22.9828 20.5059 23.1484 21.6578 23.0291C22.8098 22.9098 23.9148 22.5093 24.8756 21.8626C25.8364 21.216 26.6235 20.3431 27.1678 19.3208C27.712 18.2986 27.9966 17.1582 27.9966 16.0001C27.9966 14.8419 27.712 13.7016 27.1678 12.6793C26.6235 11.657 25.8364 10.7841 24.8756 10.1375C23.9148 9.49085 22.8098 9.09027 21.6578 8.97098C20.5059 8.85169 19.3422 9.01735 18.2693 9.45339C19.9007 11.2431 20.8035 13.5784 20.8 16.0001C20.8 18.5201 19.8413 20.8187 18.2693 22.5467ZM13.7307 9.45339C12.6578 9.01735 11.4941 8.85169 10.3422 8.97098C9.1902 9.09027 8.0852 9.49085 7.12441 10.1375C6.16362 10.7841 5.37648 11.657 4.83224 12.6793C4.28801 13.7016 4.00338 14.8419 4.00338 16.0001C4.00338 17.1582 4.28801 18.2986 4.83224 19.3208C5.37648 20.3431 6.16362 21.216 7.12441 21.8626C8.0852 22.5093 9.1902 22.9098 10.3422 23.0291C11.4941 23.1484 12.6578 22.9828 13.7307 22.5467C12.0993 20.757 11.1965 18.4217 11.2 16.0001C11.2 13.4801 12.1587 11.1814 13.7307 9.45339ZM16 10.9401C15.3238 11.5977 14.7865 12.3845 14.4201 13.2537C14.0536 14.1228 13.8654 15.0568 13.8667 16.0001C13.8667 17.9841 14.684 19.7761 16 21.0601C16.6762 20.4024 17.2135 19.6157 17.5799 18.7465C17.9464 17.8773 18.1346 16.9433 18.1333 16.0001C18.1346 15.0568 17.9464 14.1228 17.5799 13.2537C17.2135 12.3845 16.6762 11.5977 16 10.9401V10.9401Z" fill="#27AE60"/>
</g>
<defs>
<clipPath id="clip0_301_58">
<rect width="32" height="32" fill="white"/>
</clipPath>
</defs>
</svg>
